<svg width="66" height="66" viewBox="0 0 66 66" fill="none" xmlns="http://www.w3.org/2000/svg">
<path d="M21.6332 28.8668C24.4867 28.8668 26.7999 26.5536 26.7999 23.7001C26.7999 20.8466 24.4867 18.5334 21.6332 18.5334C18.7797 18.5334 16.4666 20.8466 16.4666 23.7001C16.4666 26.5536 18.7797 28.8668 21.6332 28.8668Z" stroke="white" stroke-width="3" stroke-miterlimit="10"/>
<path d="M44.3666 47.4666C47.2201 47.4666 49.5333 45.1534 49.5333 42.3C49.5333 39.4465 47.2201 37.1333 44.3666 37.1333C41.5131 37.1333 39.2 39.4465 39.2 42.3C39.2 45.1534 41.5131 47.4666 44.3666 47.4666Z" stroke="white" stroke-width="3" stroke-miterlimit="10"/>
<path d="M47.4668 18.5334L18.5334 47.4668" stroke="white" stroke-width="3" stroke-miterlimit="10"/>
<path d="M33 4.58333L39.2 2L43.85 6.75333H50.5667L53.15 12.85L59.2467 15.4333V22.15L64 26.8L61.4167 33L64 39.2L59.2467 43.85V50.5667L53.15 53.15L50.5667 59.2467H43.85L39.2 64L33 61.4167L26.8 64L22.15 59.2467H15.4333L12.85 53.15L6.75333 50.5667V43.85L2 39.2L4.58333 33L2 26.8L6.75333 22.15V15.4333L12.85 12.85L15.4333 6.75333H22.15L26.8 2L33 4.58333Z" stroke="white" stroke-width="3" stroke-miterlimit="10"/>
</svg>
