<svg width="65" height="66" viewBox="0 0 65 66" fill="none" xmlns="http://www.w3.org/2000/svg">
<path d="M47.4666 34.0334H52.6332C53.4319 33.9636 54.1805 33.6146 54.7474 33.0476C55.3143 32.4807 55.6634 31.7321 55.7332 30.9334V23.7001C55.6634 22.9014 55.3143 22.1528 54.7474 21.5859C54.1805 21.019 53.4319 20.6699 52.6332 20.6001H47.4666" stroke="white" stroke-width="3" stroke-miterlimit="10"/>
<path d="M17.5001 20.6001H12.3334C11.5347 20.6699 10.7861 21.019 10.2192 21.5859C9.65228 22.1528 9.30324 22.9014 9.2334 23.7001V30.9334C9.30324 31.7321 9.65228 32.4807 10.2192 33.0476C10.7861 33.6146 11.5347 33.9636 12.3334 34.0334H18.7401" stroke="white" stroke-width="3" stroke-miterlimit="10"/>
<path d="M26.18 43.6433C21.3233 40.6467 17.5 34.24 17.5 26.8V16.4667C17.5 5.72 25.56 2 32.38 2C39.2 2 47.4667 5.72 47.4667 16.4667V33C47.4667 37.1333 43.3333 40.2333 40.2333 40.2333" stroke="white" stroke-width="3" stroke-miterlimit="10"/>
<path d="M24.7333 42.6101V45.4001C24.7333 47.4667 25.1467 50.5667 13.78 52.6334C10.9094 53.1433 8.25572 54.4969 6.15762 56.5214C4.05952 58.5458 2.61209 61.1495 2 64.0001H62.9667C62.2904 61.1451 60.7963 58.5492 58.6673 56.5304C56.5383 54.5115 53.8668 53.1573 50.98 52.6334C39.9233 50.5667 40.2333 47.4667 40.2333 45.4001V40.2334" stroke="white" stroke-width="3" stroke-miterlimit="10"/>
<path d="M40.2332 40.2333C40.2332 39.4111 39.9066 38.6226 39.3252 38.0413C38.7439 37.4599 37.9554 37.1333 37.1332 37.1333H35.0666C34.2444 37.1333 33.4559 37.4599 32.8745 38.0413C32.2932 38.6226 31.9666 39.4111 31.9666 40.2333V40.2333C31.9666 41.0555 32.2932 41.844 32.8745 42.4253C33.4559 43.0067 34.2444 43.3333 35.0666 43.3333H37.1332C37.9554 43.3333 38.7439 43.0067 39.3252 42.4253C39.9066 41.844 40.2332 41.0555 40.2332 40.2333Z" stroke="white" stroke-width="3" stroke-miterlimit="10"/>
<path d="M22.0466 50.05L32.38 62.9667L42.92 50.05" stroke="white" stroke-width="3" stroke-miterlimit="10"/>
<path d="M17.5 18.5333C29.9 18.5333 29.9 10.2666 38.1667 10.2666C46.4333 10.2666 47.4667 17.4999 47.4667 17.4999" stroke="white" stroke-width="3" stroke-miterlimit="10"/>
</svg>
